<?xml version="1.0" standalone="no"?>
<!DOCTYPE svg PUBLIC "-//W3C//DTD SVG 20010904//EN"
 "http://www.w3.org/TR/2001/REC-SVG-20010904/DTD/svg10.dtd">
<svg version="1.0" xmlns="http://www.w3.org/2000/svg"
 width="1024.000000pt" height="1024.000000pt" viewBox="0 0 1024.000000 1024.000000"
 preserveAspectRatio="xMidYMid meet">

<g transform="translate(0.000000,1024.000000) scale(0.100000,-0.100000)"
fill="#000000" stroke="none">
<path d="M4760 9044 c-360 -43 -739 -161 -1055 -328 -885 -467 -1462 -1320
-1576 -2331 -18 -155 -15 -499 5 -670 50 -412 181 -796 403 -1174 99 -169 479
-755 615 -949 551 -785 1758 -2285 1898 -2357 85 -44 157 -22 241 76 31 35 92
110 137 166 45 56 138 168 207 249 69 81 125 153 125 161 0 7 -82 52 -184 102
-516 249 -944 538 -1251 846 -466 465 -500 785 -131 1224 168 200 441 388 849
586 262 127 512 224 969 376 593 196 867 321 1147 521 108 78 266 235 361 358
l72 95 -7 -55 c-4 -30 -18 -93 -32 -139 -90 -314 -264 -542 -578 -762 -177
-124 -394 -236 -850 -439 -751 -334 -1034 -541 -1126 -821 -31 -96 -33 -245
-5 -329 93 -275 355 -524 765 -730 131 -65 419 -188 462 -197 23 -4 39 12 160
159 563 681 1141 1524 1398 2038 138 277 217 493 275 751 108 484 93 930 -49
1428 -197 690 -701 1342 -1334 1725 -370 224 -808 370 -1261 421 -167 18 -493
18 -650 -1z m1109 -1130 c543 -72 1015 -331 1261 -694 108 -159 162 -323 163
-495 2 -351 -207 -591 -711 -819 -464 -210 -1711 -600 -2287 -715 -252 -51
-352 -63 -560 -68 -293 -8 -448 18 -624 103 -192 94 -326 272 -372 499 -48
231 5 524 145 804 68 135 106 195 211 336 118 157 110 152 192 130 102 -28
305 -135 427 -225 133 -100 265 -226 342 -328 33 -42 78 -96 101 -120 37 -38
46 -43 80 -40 60 5 64 33 25 174 -57 206 -153 368 -302 508 -110 103 -284 210
-425 261 -27 10 -54 22 -58 26 -10 8 51 58 187 153 126 88 234 146 272 146 57
0 207 -50 329 -109 296 -145 534 -350 739 -636 94 -131 127 -165 162 -165 69
0 81 64 38 202 -84 264 -263 519 -483 683 -88 66 -246 150 -338 180 -29 9 -53
20 -53 25 0 12 67 36 192 69 154 41 277 62 378 63 74 1 96 -3 165 -31 343
-138 681 -425 916 -779 93 -139 105 -152 145 -152 27 0 34 5 43 31 15 44 14
64 -10 154 -78 298 -372 630 -719 811 l-55 29 55 6 c78 9 295 1 429 -17z"/>
</g>
</svg>
